<svg aria-hidden="true" style="position: absolute; width: 0; height: 0; overflow: hidden;" version="1.1" xmlns="http://www.w3.org/2000/svg" xmlns:xlink="http://www.w3.org/1999/xlink">
<defs>
<symbol id="icon-logo-bookmark" viewBox="0 0 189 32">
<title>logo-bookmark</title>
<path d="M47.36 8.063h6.691c0.955 0 1.836 0.198 2.639 0.596 0.805 0.398 1.437 0.941 1.9 1.626s0.694 1.434 0.694 2.245c0 0.86-0.211 1.605-0.634 2.235-0.422 0.628-0.975 1.111-1.66 1.445v0.192c0.892 0.317 1.6 0.823 2.126 1.517 0.525 0.692 0.788 1.524 0.788 2.496 0 0.941-0.251 1.773-0.753 2.497-0.512 0.727-1.199 1.299-2.001 1.661l-0.031 0.012c-0.851 0.39-1.796 0.585-2.831 0.585h-6.929v-17.107zM53.811 15.039c0.701 0 1.262-0.195 1.684-0.585s0.634-0.881 0.634-1.469c0-0.573-0.204-1.055-0.609-1.446-0.407-0.389-0.945-0.585-1.613-0.585h-3.322v4.086h3.226zM54.17 22.231c0.781 0 1.39-0.204 1.828-0.609s0.657-0.936 0.657-1.588c0-0.653-0.223-1.187-0.668-1.601-0.447-0.415-1.084-0.621-1.912-0.621h-3.488v4.42h3.584zM70.716 25.553c-1.673 0-3.19-0.394-4.552-1.183-1.35-0.783-2.44-1.881-3.192-3.196l-0.022-0.042c-0.781-1.37-1.171-2.875-1.171-4.516 0-1.64 0.39-3.145 1.171-4.516 0.774-1.357 1.863-2.454 3.172-3.215l0.041-0.022c1.364-0.788 2.88-1.183 4.554-1.183 1.672 0 3.19 0.394 4.552 1.183 1.35 0.784 2.439 1.881 3.191 3.196l0.022 0.042c0.781 1.37 1.171 2.875 1.171 4.515 0 1.641-0.39 3.146-1.171 4.516-0.774 1.357-1.863 2.455-3.172 3.216l-0.041 0.022c-1.362 0.788-2.88 1.183-4.552 1.183zM70.716 22.493c0.017 0 0.038 0 0.059 0 1.040 0 2.016-0.275 2.86-0.755l-0.028 0.015c0.874-0.495 1.576-1.202 2.053-2.052l0.014-0.027c0.502-0.892 0.753-1.912 0.753-3.059s-0.251-2.166-0.753-3.058c-0.491-0.877-1.194-1.583-2.041-2.065l-0.026-0.014c-0.816-0.466-1.792-0.741-2.834-0.741-0.020 0-0.040 0-0.060 0l0.003-0c-0.019-0-0.041-0-0.063-0-1.036 0-2.007 0.275-2.845 0.756l0.028-0.015c-0.868 0.498-1.566 1.204-2.040 2.052l-0.014 0.027c-0.502 0.892-0.753 1.911-0.753 3.059 0 1.146 0.251 2.166 0.753 3.058 0.489 0.875 1.187 1.581 2.028 2.065l0.026 0.014c0.81 0.466 1.78 0.74 2.815 0.74 0.023 0 0.046-0 0.069-0l-0.003 0zM90.368 25.553c-1.673 0-3.19-0.394-4.552-1.183-1.35-0.784-2.439-1.881-3.191-3.196l-0.022-0.042c-0.781-1.37-1.171-2.875-1.171-4.516 0-1.64 0.39-3.145 1.17-4.516 0.774-1.357 1.864-2.454 3.173-3.215l0.041-0.022c1.362-0.788 2.88-1.183 4.552-1.183 1.673 0 3.19 0.394 4.552 1.183 1.35 0.784 2.439 1.881 3.191 3.196l0.022 0.042c0.781 1.37 1.171 2.875 1.171 4.515 0 1.641-0.39 3.146-1.17 4.516-0.774 1.358-1.864 2.455-3.173 3.216l-0.041 0.022c-1.362 0.788-2.88 1.183-4.552 1.183zM90.368 22.493c0.018 0 0.039 0 0.060 0 1.040 0 2.016-0.275 2.86-0.755l-0.028 0.015c0.873-0.496 1.575-1.202 2.052-2.052l0.014-0.027c0.502-0.892 0.753-1.912 0.753-3.059s-0.251-2.166-0.753-3.058c-0.491-0.877-1.193-1.583-2.040-2.065l-0.026-0.014c-0.816-0.466-1.792-0.741-2.834-0.741-0.020 0-0.041 0-0.061 0l0.003-0c-0.019-0-0.041-0-0.063-0-1.036 0-2.007 0.275-2.845 0.756l0.028-0.015c-0.868 0.498-1.566 1.204-2.040 2.052l-0.014 0.027c-0.502 0.892-0.753 1.911-0.753 3.059 0 1.146 0.251 2.166 0.753 3.058 0.489 0.875 1.187 1.581 2.030 2.065l0.026 0.014c0.81 0.466 1.78 0.74 2.815 0.74 0.023 0 0.045-0 0.067-0l-0.003 0zM102.182 8.064h3.226v7.334h0.192l6.259-7.334h3.895v0.191l-6.186 7.071 6.833 9.654v0.191h-3.942l-5.112-7.287-1.935 2.269v5.018h-3.226v-17.107zM120.037 7.68h4.157l4.539 12.019h0.192l4.538-12.019h4.182v17.107h-3.201v-8.434l0.192-2.843h-0.192l-4.349 11.277h-2.509l-4.372-11.277h-0.191l0.192 2.843v8.435h-3.178v-17.108zM146.661 7.68h3.704l6.427 17.107h-3.56l-1.434-4.086h-6.547l-1.434 4.086h-3.56l6.403-17.107zM150.748 17.74l-1.505-4.301-0.622-2.056h-0.191l-0.621 2.056-1.53 4.301h4.467zM159.428 7.68h6.236c1.115 0 2.107 0.23 2.975 0.692s1.541 1.103 2.019 1.924c0.479 0.819 0.717 1.748 0.717 2.784 0 1.098-0.346 2.074-1.039 2.926-0.677 0.832-1.561 1.47-2.575 1.839l-0.041 0.013-0.023 0.166 4.588 6.572v0.192h-3.704l-4.42-6.428h-1.505v6.427h-3.226v-17.107zM165.64 15.398c0.733 0 1.331-0.224 1.792-0.669 0.462-0.447 0.694-1.011 0.694-1.697 0-0.653-0.22-1.21-0.658-1.672s-1.032-0.694-1.779-0.694h-3.035v4.731h2.986zM174.894 7.68h3.226v7.334h0.192l6.259-7.334h3.895v0.192l-6.189 7.072 6.835 9.652v0.192h-3.942l-5.115-7.288-1.935 2.269v5.018h-3.226v-17.107z"></path>
<path fill="#5267df" d="M32 16c0 8.837-7.163 16-16 16s-16-7.163-16-16c0-8.837 7.163-16 16-16s16 7.163 16 16z"></path>
<path fill="#fff" d="M11.52 11.52v12.8l4.531-4.403 4.529 4.403v-12.8c0-1.414-1.146-2.56-2.56-2.56v0h-3.94c-1.414 0-2.56 1.146-2.56 2.56v0z"></path>
</symbol>
<symbol id="icon-facebook2" viewBox="0 0 32 32">
<title>facebook2</title>
<path d="M29 0h-26c-1.65 0-3 1.35-3 3v26c0 1.65 1.35 3 3 3h13v-14h-4v-4h4v-2c0-3.306 2.694-6 6-6h4v4h-4c-1.1 0-2 0.9-2 2v2h6l-1 4h-5v14h9c1.65 0 3-1.35 3-3v-26c0-1.65-1.35-3-3-3z"></path>
</symbol>
<symbol id="icon-twitter" viewBox="0 0 32 32">
<title>twitter</title>
<path d="M32 7.075c-1.175 0.525-2.444 0.875-3.769 1.031 1.356-0.813 2.394-2.1 2.887-3.631-1.269 0.75-2.675 1.3-4.169 1.594-1.2-1.275-2.906-2.069-4.794-2.069-3.625 0-6.563 2.938-6.563 6.563 0 0.512 0.056 1.012 0.169 1.494-5.456-0.275-10.294-2.888-13.531-6.862-0.563 0.969-0.887 2.1-0.887 3.3 0 2.275 1.156 4.287 2.919 5.463-1.075-0.031-2.087-0.331-2.975-0.819 0 0.025 0 0.056 0 0.081 0 3.181 2.263 5.838 5.269 6.437-0.55 0.15-1.131 0.231-1.731 0.231-0.425 0-0.831-0.044-1.237-0.119 0.838 2.606 3.263 4.506 6.131 4.563-2.25 1.762-5.075 2.813-8.156 2.813-0.531 0-1.050-0.031-1.569-0.094 2.913 1.869 6.362 2.95 10.069 2.95 12.075 0 18.681-10.006 18.681-18.681 0-0.287-0.006-0.569-0.019-0.85 1.281-0.919 2.394-2.075 3.275-3.394z"></path>
</symbol>
</defs>
</svg>
